<svg
   width="48"
   height="48"
   fill="currentColor"
   viewBox="0 0 12.7 12.7">
	<path
       style="stroke-width:0.011577"
       d="M 4.9350701,11.682638 C 4.7674128,11.637257 4.6382799,11.506255 4.5941498,11.336784 4.5783499,11.276108 4.5761822,11.083255 4.5761822,9.7382449 V 8.2087058 l -0.03433,-0.051187 C 4.5229709,8.1293657 4.4653447,8.0698638 4.4137939,8.0252923 4.232944,7.8689268 4.0189054,7.6128619 3.8748776,7.3805605 3.7245848,7.1381546 3.5776626,6.7806498 3.5270211,6.5341238 3.5076108,6.4396334 3.504252,6.4326585 3.4809733,6.438501 3.4320895,6.4507701 2.3003359,6.8965353 2.2378598,6.9281277 c -0.076753,0.038812 -0.1317559,0.107233 -0.1575607,0.195998 -0.015797,0.054339 -0.017833,0.115701 -0.013514,0.4073212 0.00483,0.3260963 0.00663,0.3491597 0.035804,0.4591143 0.081765,0.3081433 0.284947,0.5830583 0.5460179,0.7387866 0.1012966,0.060423 0.1695236,0.1294405 0.20767,0.2100755 0.047045,0.099444 0.055338,0.1632462 0.051012,0.3924411 L 2.903299,9.5431555 2.860062,9.6306035 C 2.7639679,9.8249626 2.5670436,9.9277974 2.3533928,9.8951902 1.9929246,9.8401759 1.5729814,9.6492425 1.2651521,9.4004055 1.1456077,9.3037705 0.94936603,9.0992341 0.8594871,8.9775939 0.64472336,8.6869372 0.50009353,8.3486932 0.43001627,7.9731956 L 0.40300923,7.8284828 0.39918465,5.6809441 C 0.39645733,4.1495275 0.39911218,3.4918877 0.4084383,3.3886926 0.43533028,3.0911282 0.50897859,2.8271236 0.63935455,2.5609351 0.94905856,1.9286125 1.5077599,1.4725846 2.1856449,1.2988088 2.4795701,1.2234611 2.4726561,1.2237883 3.770762,1.2237883 H 4.9442176 L 5.0525199,1.1652361 C 5.6727748,0.82990373 6.2811117,0.63518305 6.949473,0.55804639 c 0.2270558,-0.0262049 0.5818968,-0.0357867 0.6730517,-0.0181745 0.2268483,0.0438297 0.4107015,0.21293968 0.4918147,0.45237585 0.016272,0.048033 0.021141,0.093533 0.019821,0.18523246 -0.00158,0.1096733 -0.015796,0.1846652 -0.1454114,0.7669781 l -0.1436619,0.6454193 0.5738656,4.63e-5 c 0.6206706,4.63e-5 0.8638677,0.010491 1.0890436,0.04678 1.0313337,0.1662067 1.9214137,0.823037 2.3953357,1.767625 0.192718,0.3841145 0.301345,0.7754266 0.336711,1.2129473 0.0094,0.1163104 0.01209,0.9450376 0.0095,2.9347766 l -0.0036,2.7726982 -0.02646,0.06544 c -0.05132,0.126935 -0.151632,0.227247 -0.278567,0.278568 l -0.06544,0.02645 -0.762647,0.0033 c -0.67553,0.0029 -0.770085,0.0011 -0.827758,-0.01549 -0.147999,-0.0427 -0.252383,-0.131045 -0.3176636,-0.26885 l -0.036873,-0.07784 -0.00314,-1.287944 -0.00314,-1.2879441 -1.4208362,2.547e-4 c -1.3534431,2.42e-4 -1.4230554,0.00126 -1.4676232,0.021507 -0.057097,0.025935 -0.1045762,0.080193 -0.1205704,0.1377827 -0.00786,0.028296 -0.011979,0.4421673 -0.012022,1.2073387 -5.79e-5,1.029436 -0.00219,1.171568 -0.018452,1.227165 -0.038142,0.130439 -0.1360358,0.24112 -0.2689591,0.304094 l -0.07733,0.03663 -0.7698724,0.0023 c -0.6507538,0.002 -0.7797243,-3.36e-4 -0.833546,-0.0149 z M 6.5209135,11.41168 c 0.024847,-0.01268 0.059805,-0.04222 0.077684,-0.06566 l 0.032507,-0.04261 0.00603,-1.20492 c 0.00537,-1.0729051 0.00809,-1.2109329 0.02488,-1.259796 C 6.7227435,8.6619421 6.87086,8.5346639 7.0499556,8.5053323 7.0900076,8.4987723 7.682047,8.4942683 8.5094805,8.4942293 L 9.9016152,8.4941619 9.901386,8.416017 C 9.9008072,8.2189208 9.8624602,8.1034584 9.7415841,7.93486 9.5368708,7.6493255 9.394304,7.3533298 9.3055966,7.0296679 9.1555754,6.4822935 9.1652279,5.9286193 9.3339879,5.4011173 c 0.05499,-0.171887 0.083012,-0.2064084 0.1675469,-0.2064084 0.060528,0 0.1036666,0.030575 0.1221474,0.086572 0.011682,0.035398 0.00791,0.056078 -0.033451,0.1832008 -0.2036792,0.6260595 -0.1603236,1.3048502 0.1217327,1.9058951 0.063101,0.1344635 0.1455458,0.2730222 0.2488978,0.4183019 0.1528333,0.2148348 0.1949123,0.3434928 0.1952473,0.5969818 1.43e-4,0.1085177 0.0052,0.1638676 0.01757,0.1935434 0.01509,0.036123 0.01737,0.2151421 0.01737,1.368078 0,1.2000361 0.0018,1.3300491 0.01876,1.3635671 0.0267,0.05273 0.05032,0.07689 0.09993,0.102204 0.04166,0.02126 0.0739,0.02204 0.788091,0.01903 l 0.744653,-0.0031 0.04695,-0.03107 c 0.02827,-0.01871 0.05671,-0.05125 0.0715,-0.0818 l 0.02456,-0.05073 V 8.4759645 c 0,-3.0351554 0.0026,-2.9065268 -0.06454,-3.2322486 C 11.691197,4.1285141 10.809706,3.2160574 9.6983958,2.9430914 9.3934746,2.8681949 9.3402365,2.8643732 8.5291444,2.8591555 L 7.7876215,2.8543852 7.6157558,3.6453994 C 7.5212296,4.0804571 7.4323298,4.4702764 7.4182006,4.5116643 7.2738368,4.9345433 6.9372425,5.2727467 6.5266244,5.4075026 6.321339,5.4748728 6.3204174,5.4749405 5.5283986,5.4807832 4.8458877,5.485818 4.6507948,5.480679 4.4996817,5.4536855 4.464841,5.4474619 4.4632554,5.4490347 4.4496415,5.5033218 4.4126199,5.6509502 4.3290793,5.7961333 4.2045568,5.9292483 4.1007514,6.0402165 3.9860083,6.1240202 3.7559921,6.2568615 c -0.012769,0.00737 -0.010053,0.035863 0.015031,0.1576184 0.081862,0.3973585 0.2680508,0.7874268 0.5321805,1.1149247 0.041936,0.051997 0.1534829,0.1692148 0.2478814,0.2604831 0.191618,0.1852641 0.2240522,0.2242355 0.2603846,0.3128655 l 0.025196,0.061463 0.00579,1.5637488 0.00579,1.563749 0.030891,0.04667 c 0.018081,0.02732 0.051687,0.05697 0.081039,0.0715 0.049676,0.02459 0.057048,0.02482 0.7828568,0.02483 0.7087388,9e-6 0.7341861,-7.45e-4 0.7778845,-0.02304 z M 2.5518012,9.6000841 c 0.024339,-0.016106 0.055105,-0.050558 0.068369,-0.076559 0.022187,-0.043491 0.023827,-0.063345 0.020488,-0.248086 C 2.6362929,9.0338418 2.6415551,9.0444179 2.468256,8.9289511 2.1991951,8.7496795 1.988592,8.4779035 1.8846242,8.1757936 1.8173415,7.9802838 1.8073306,7.9031463 1.8012379,7.5332686 1.794904,7.1487584 1.8030705,7.0777027 1.8690966,6.9428401 1.9108048,6.8576485 2.021274,6.7391947 2.0931352,6.7026084 2.133266,6.6821766 2.9241133,6.3687336 3.3015178,6.22368 3.4135554,6.1806189 3.4369325,6.1671874 3.4564625,6.1346552 3.4741207,6.1052409 3.5106967,6.0806214 3.6139436,6.0286539 3.9170172,5.876107 4.1117474,5.688437 4.1816069,5.4815716 4.2207263,5.3657323 4.2163957,5.3448363 4.1427581,5.2941202 4.1081305,5.2702713 4.0386008,5.2078457 3.9882478,5.1553968 3.8488088,5.0101538 3.7587766,4.8434364 3.7053612,4.6315596 3.6801167,4.5314259 3.6795063,4.5134261 3.6792376,3.8613306 3.6789667,3.2028338 3.6792955,3.1931806 3.7030666,3.1609204 3.7295221,3.1250183 4.3901088,2.6345242 4.6572214,2.4524481 5.429404,1.9260936 6.2981474,1.6281637 7.2299973,1.5701318 c 0.2493681,-0.01553 0.3506017,-0.00925 0.4638195,0.028774 0.045878,0.015408 0.0844,0.027058 0.085606,0.02589 0.0045,-0.00436 0.082717,-0.3625332 0.090388,-0.4138897 0.00974,-0.065196 -0.016276,-0.175956 -0.056173,-0.23915573 C 7.7450452,0.86309138 7.6405782,0.80557549 7.4976819,0.79779529 7.3278966,0.78855106 6.9265774,0.82412527 6.6600473,0.87204586 6.2167908,0.95174088 5.6821678,1.1381107 5.3113235,1.3422115 5.2285478,1.3877686 5.1183192,1.4465303 5.066371,1.472793 4.9394547,1.5369563 4.8422244,1.6038757 4.3315521,1.9785373 4.0919439,2.1543289 3.8852023,2.303884 3.8721263,2.3108821 3.8260557,2.3355383 3.759639,2.326387 3.7207065,2.2900186 c -0.03077,-0.028743 -0.035918,-0.041683 -0.035698,-0.089722 1.632e-4,-0.035608 0.00757,-0.065174 0.02026,-0.080854 0.011001,-0.013596 0.2075502,-0.1620711 0.4367754,-0.3299453 l 0.416773,-0.3052257 -0.092616,-0.00351 c -0.050939,-0.00193 -0.496365,-0.00136 -0.9898359,0.00127 -0.9574358,0.00511 -0.9670322,0.00563 -1.206081,0.066289 C 2.1241299,1.5854042 2.0135016,1.6254368 1.8704786,1.6929961 1.3076001,1.9588813 0.89199482,2.4568125 0.73317827,3.0555808 0.66611787,3.3084111 0.66314664,3.3655473 0.66314664,4.4022755 v 0.9429348 h 0.28400904 c 0.31474002,0 0.34890252,0.0061 0.38090112,0.067975 0.023166,0.044799 0.023195,0.1048802 6.6e-5,0.1379015 -0.039466,0.056345 -0.064609,0.060395 -0.37497554,0.060395 H 0.66314664 V 5.8256569 6.039832 H 0.96530708 1.2674675 l 0.039362,0.039362 c 0.055839,0.055839 0.055839,0.120132 0,0.1759708 l -0.039362,0.039362 H 0.96530708 0.66314664 v 0.213487 0.2134871 l 0.22484845,0.00358 c 0.22023671,0.00351 0.22546581,0.00416 0.25494831,0.031887 0.057799,0.054352 0.058011,0.1395341 4.89e-4,0.1971092 -0.029011,0.029038 -0.03112,0.02931 -0.2547697,0.032863 l -0.22551606,0.00358 v 0.3633955 c 0,0.3930057 0.0124562,0.5402684 0.0622725,0.7362127 0.19432191,0.7643331 0.79085806,1.3426127 1.57587696,1.5276486 0.1150018,0.027107 0.1909048,0.021745 0.2505051,-0.017697 z M 1.9887164,4.7384696 C 1.8265993,4.6982992 1.7022528,4.5818235 1.6466849,4.4180881 1.6260751,4.3573596 1.6225242,4.3264468 1.6272343,4.2487552 1.6379547,4.0719275 1.7299409,3.9328085 1.8876358,3.8549266 c 0.085456,-0.042205 0.092553,-0.043673 0.2111554,-0.043673 0.1186185,0 0.1256848,0.00146 0.2110623,0.043673 0.1043264,0.051579 0.1689599,0.1181602 0.2217056,0.2283876 0.032876,0.068705 0.036009,0.085322 0.036009,0.191021 0,0.1061175 -0.00307,0.1222601 -0.036873,0.1936065 C 2.4296632,4.6812152 2.206732,4.7924909 1.9887164,4.7384696 Z m 4.289289,0.4293935 C 6.4965923,5.1147313 6.6770383,5.0195263 6.833228,4.8749222 6.9792651,4.7397176 7.1073197,4.5316879 7.1568992,4.3491052 7.1697951,4.3016143 7.2973195,3.7442701 7.4402868,3.1105623 7.5832541,2.4768547 7.7036437,1.944754 7.7078195,1.9281165 7.7147923,1.9003349 7.7099041,1.8951619 7.6479164,1.8647243 7.5808304,1.8317833 7.5791573,1.8315904 7.3720346,1.8329227 6.5432885,1.8382534 5.6368464,2.12451 4.8800628,2.6198936 4.8084209,2.6667897 4.567474,2.8385267 4.3446252,3.0015314 l -0.4051795,0.296372 1.748e-4,0.5287355 c 1.424e-4,0.4309014 0.00326,0.5373041 0.016857,0.5750436 0.00918,0.02547 0.016912,0.072564 0.017191,0.1046552 0.00117,0.1338491 0.074669,0.3134027 0.1736159,0.4241081 0.07192,0.080466 0.1557611,0.1429969 0.2063172,0.1538756 0.020847,0.00449 0.052246,0.020225 0.069778,0.034977 0.081041,0.068192 0.1606131,0.073582 1.0326567,0.069959 0.6335739,-0.00263 0.7581206,-0.00587 0.8219691,-0.021394 z"
       id="path1763" />
</svg>
